<?xml version="1.0" encoding="UTF-8"?>
<svg xmlns="http://www.w3.org/2000/svg" xmlns:xlink="http://www.w3.org/1999/xlink" width="10pt" height="10pt" viewBox="0 0 256 256" version="1.1">
<g id="surface1">
<path style=" stroke:none;fill-rule:nonzero;fill:green;fill-opacity:1;" d="M 252 128 C 252 196.484375 196.484375 252 128 252 C 59.515625 252 4 196.484375 4 128 C 4 59.515625 59.515625 4 128 4 C 196.484375 4 252 59.515625 252 128 Z M 113.65625 193.65625 L 205.65625 101.65625 C 208.78125 98.53125 208.78125 93.46875 205.65625 90.34375 L 194.34375 79.03125 C 191.21875 75.90625 186.152344 75.90625 183.03125 79.03125 L 108 154.058594 L 72.96875 119.03125 C 69.847656 115.90625 64.78125 115.90625 61.65625 119.03125 L 50.34375 130.34375 C 47.21875 133.46875 47.21875 138.53125 50.34375 141.65625 L 102.34375 193.65625 C 105.46875 196.78125 110.53125 196.78125 113.65625 193.65625 Z M 113.65625 193.65625 " 

/>
</g>
</svg>
